<svg xmlns="http://www.w3.org/2000/svg" x="0px" y="0px" width="100" height="100" viewBox="0 0 64 64">
<radialGradient id="HTxln42VHE9_9Ma4ntE1Ba_13GFrCusOVD0_gr1" cx="-1438.072" cy="1212.073" r="34.917" gradientTransform="matrix(-1 0 0 1 -1407 -1178)" gradientUnits="userSpaceOnUse"><stop offset="0" stop-color="#9ceeff"></stop><stop offset=".642" stop-color="#c5f5ff"></stop><stop offset="1" stop-color="#dcf9ff"></stop></radialGradient><path fill="url(#HTxln42VHE9_9Ma4ntE1Ba_13GFrCusOVD0_gr1)" d="M59.5,49h0.33c2.09,0,3.95-1.53,4.15-3.61C64.21,43.01,62.34,41,60,41h-7	c-0.83,0-1.58-0.34-2.12-0.88S50,38.83,50,38c0-1.66,1.34-3,3-3h6.5c2.63,0,4.73-2.26,4.48-4.94C63.76,27.72,61.66,26,59.31,26H53	c-0.83,0-1.58-0.34-2.12-0.88S50,23.83,50,23c0-1.66,1.34-3,3-3h5.3c1.9,0,3.6-1.42,3.69-3.31C62.1,14.67,60.5,13,58.5,13H53	c-1.38,0-2.5-1.12-2.5-2.5c0-0.69,0.28-1.32,0.73-1.77C51.68,8.28,52.31,8,53,8h2.89c1.45,0,2.78-0.98,3.05-2.41	C59.31,3.68,57.85,2,56,2H7.11C5.66,2,4.33,2.98,4.06,4.41C3.69,6.32,5.15,8,7,8h3c1.66,0,3,1.34,3,3c0,0.83-0.34,1.58-0.88,2.12	S10.83,14,10,14H6.17c-2.09,0-3.95,1.53-4.15,3.61C1.79,19.99,3.66,22,6,22h3c0.83,0,1.58,0.34,2.12,0.88S12,24.17,12,25	c0,1.66-1.34,3-3,3H5.22c-2.62,0-4.95,1.91-5.2,4.51C-0.26,35.49,2.08,38,5,38h4.5c0.69,0,1.32,0.28,1.77,0.73	C11.72,39.18,12,39.81,12,40.5c0,1.38-1.12,2.5-2.5,2.5H4.7c-1.9,0-3.6,1.42-3.69,3.31C0.9,48.33,2.5,50,4.5,50H5	c0.55,0,1.05,0.22,1.41,0.59C6.78,50.95,7,51.45,7,52c0,1.1-0.9,2-2,2H4.17c-2.09,0-3.95,1.53-4.15,3.61C-0.21,59.99,1.66,62,4,62	h55.83c2.09,0,3.95-1.53,4.15-3.61C64.21,56.01,62.34,54,60,54h-0.5c-0.69,0-1.32-0.28-1.77-0.73S57,52.19,57,51.5	C57,50.12,58.12,49,59.5,49z"></path><linearGradient id="HTxln42VHE9_9Ma4ntE1Bb_13GFrCusOVD0_gr2" x1="32" x2="32" y1="69.939" y2="29.185" gradientTransform="matrix(1 0 0 -1 0 66)" gradientUnits="userSpaceOnUse"><stop offset=".04" stop-color="#5c6b79"></stop><stop offset="1" stop-color="#515c69"></stop></linearGradient><path fill="url(#HTxln42VHE9_9Ma4ntE1Bb_13GFrCusOVD0_gr2)" d="M18,8h28c5.523,0,10,4.477,10,10v5.56L55,26l1,1v19c0,5.523-4.477,10-10,10H18	c-5.523,0-10-4.477-10-10v-9.68L9,35l-1-0.75V18C8,12.477,12.477,8,18,8z"></path><linearGradient id="HTxln42VHE9_9Ma4ntE1Bc_13GFrCusOVD0_gr3" x1="32" x2="32" y1="25.355" y2="-31.052" gradientTransform="matrix(1 0 0 -1 0 66)" gradientUnits="userSpaceOnUse"><stop offset=".096" stop-color="#5e6d7b"></stop><stop offset=".505" stop-color="#5c6b79"></stop><stop offset="1" stop-color="#515c69"></stop></linearGradient><path fill="url(#HTxln42VHE9_9Ma4ntE1Bc_13GFrCusOVD0_gr3)" d="M56,27v19c0,3.7-2.01,6.93-5,8.66c-0.62,0.36-1.29,0.66-2,0.88c-0.95,0.3-1.95,0.46-3,0.46H18	c-1.05,0-2.05-0.16-3-0.46c-0.71-0.22-1.38-0.52-2-0.88C10.01,52.93,8,49.7,8,46v-9.68L9,35l4,1.6l1,0.4l1-0.6l4.87-2.9l3.13,1	l3-5.5l6,8.68L35.05,33l2.71-1L41,22.56l3,7.33L47.28,28L49,31.16L50,33L56,27z"></path><linearGradient id="HTxln42VHE9_9Ma4ntE1Bd_13GFrCusOVD0_gr4" x1="14" x2="14" y1="62.943" y2="80.29" gradientTransform="matrix(1 0 0 -1 0 66)" gradientUnits="userSpaceOnUse"><stop offset="0" stop-color="#828c95"></stop><stop offset="1" stop-color="#8a949f"></stop></linearGradient><path fill="url(#HTxln42VHE9_9Ma4ntE1Bd_13GFrCusOVD0_gr4)" d="M15,8.46v47.08c-0.71-0.22-1.38-0.52-2-0.88V9.34C13.62,8.98,14.29,8.68,15,8.46z"></path><linearGradient id="HTxln42VHE9_9Ma4ntE1Be_13GFrCusOVD0_gr5" x1="23" x2="23" y1="63.239" y2="80.763" gradientTransform="matrix(1 0 0 -1 0 66)" gradientUnits="userSpaceOnUse"><stop offset="0" stop-color="#828c95"></stop><stop offset="1" stop-color="#8a949f"></stop></linearGradient><rect width="2" height="48" x="22" y="8" fill="url(#HTxln42VHE9_9Ma4ntE1Be_13GFrCusOVD0_gr5)"></rect><linearGradient id="HTxln42VHE9_9Ma4ntE1Bf_13GFrCusOVD0_gr6" x1="32" x2="32" y1="63.239" y2="80.763" gradientTransform="matrix(1 0 0 -1 0 66)" gradientUnits="userSpaceOnUse"><stop offset="0" stop-color="#828c95"></stop><stop offset="1" stop-color="#8a949f"></stop></linearGradient><rect width="2" height="48" x="31" y="8" fill="url(#HTxln42VHE9_9Ma4ntE1Bf_13GFrCusOVD0_gr6)"></rect><linearGradient id="HTxln42VHE9_9Ma4ntE1Bg_13GFrCusOVD0_gr7" x1="50" x2="50" y1="62.943" y2="80.29" gradientTransform="matrix(1 0 0 -1 0 66)" gradientUnits="userSpaceOnUse"><stop offset="0" stop-color="#828c95"></stop><stop offset="1" stop-color="#8a949f"></stop></linearGradient><path fill="url(#HTxln42VHE9_9Ma4ntE1Bg_13GFrCusOVD0_gr7)" d="M51,9.34v45.32c-0.62,0.36-1.29,0.66-2,0.88V8.46C49.71,8.68,50.38,8.98,51,9.34z"></path><path fill="#fff" d="M56,23.56v3.49l-4.89,7.02c-0.19,0.28-0.49,0.47-0.85,0.43c-0.34-0.01-0.65-0.19-0.82-0.49	l-2.77-4.59l-2.11,1.41C44.31,31,44,31.04,43.72,30.96c-0.29-0.09-0.52-0.29-0.64-0.57l-1.96-4.58l-2.17,6.51	c-0.1,0.29-0.33,0.52-0.62,0.63l-2.57,0.88l-2.91,4.7C32.67,38.82,32.35,39,32,39c-0.01,0-0.01,0-0.02,0	c-0.35-0.01-0.67-0.2-0.85-0.5l-4.75-8.33l-2.47,5.26c-0.13,0.26-0.36,0.45-0.64,0.53c-0.28,0.08-0.58,0.04-0.82-0.13l-2.48-1.63	l-5.41,3.63c-0.25,0.17-0.55,0.21-0.83,0.13L8,36.32v-2.07l5.83,1.66l5.58-3.74c0.33-0.22,0.77-0.23,1.1,0l2.08,1.36l2.8-5.96	c0.16-0.33,0.49-0.55,0.86-0.57c0.37-0.05,0.73,0.18,0.91,0.5l4.88,8.54l2.21-3.57c0.12-0.19,0.31-0.34,0.52-0.42l2.44-0.83	l2.84-8.54c0.13-0.39,0.49-0.66,0.91-0.68c0.43-0.02,0.79,0.22,0.96,0.61l2.53,5.89l1.99-1.33c0.22-0.15,0.5-0.21,0.77-0.15	s0.5,0.23,0.64,0.47l2.51,4.17L56,23.56z"></path><linearGradient id="HTxln42VHE9_9Ma4ntE1Bh_13GFrCusOVD0_gr8" x1="41" x2="41" y1="-31.76" y2="58.661" gradientTransform="matrix(1 0 0 -1 0 66)" gradientUnits="userSpaceOnUse"><stop offset="0" stop-color="#005ce2"></stop><stop offset=".278" stop-color="#0080e8"></stop><stop offset=".569" stop-color="#009ced"></stop><stop offset=".82" stop-color="#00b0f1"></stop><stop offset="1" stop-color="#00b5f2"></stop></linearGradient><rect width="2" height="48" x="40" y="8" fill="url(#HTxln42VHE9_9Ma4ntE1Bh_13GFrCusOVD0_gr8)"></rect><linearGradient id="HTxln42VHE9_9Ma4ntE1Bi_13GFrCusOVD0_gr9" x1="41" x2="41" y1="34.78" y2="46.083" gradientTransform="matrix(1 0 0 -1 0 66)" gradientUnits="userSpaceOnUse"><stop offset="0" stop-color="#005ce2"></stop><stop offset=".278" stop-color="#0080e8"></stop><stop offset=".569" stop-color="#009ced"></stop><stop offset=".82" stop-color="#00b0f1"></stop><stop offset="1" stop-color="#00b5f2"></stop></linearGradient><circle cx="41" cy="23" r="3" fill="url(#HTxln42VHE9_9Ma4ntE1Bi_13GFrCusOVD0_gr9)"></circle>
</svg>